G75*
G70*
%OFA0B0*%
%FSLAX24Y24*%
%IPPOS*%
%LPD*%
%AMOC8*
5,1,8,0,0,1.08239X$1,22.5*
%
%ADD10R,0.0984X0.0866*%
%ADD11R,0.0197X0.0787*%
%ADD12R,0.0709X0.0630*%
%ADD13R,0.0630X0.0709*%
%ADD14R,0.0800X0.0260*%
%ADD15R,0.0551X0.0748*%
%ADD16R,0.0709X0.0551*%
%ADD17R,0.0276X0.0591*%
%ADD18R,0.0630X0.1181*%
%ADD19R,0.1900X0.2250*%
%ADD20R,0.0945X0.0945*%
%ADD21R,0.0394X0.1102*%
%ADD22R,0.2126X0.2441*%
%ADD23R,0.0394X0.0630*%
%ADD24R,0.0472X0.0315*%
%ADD25R,0.0600X0.0300*%
%ADD26R,0.0551X0.0472*%
%ADD27R,0.0591X0.0197*%
%ADD28R,0.0197X0.0591*%
%ADD29R,0.0550X0.0137*%
%ADD30R,0.0787X0.0787*%
%ADD31R,0.0787X0.0630*%
%ADD32R,0.0177X0.0650*%
%ADD33R,0.1701X0.0886*%
%ADD34R,0.0453X0.0571*%
%ADD35R,0.0551X0.0413*%
%ADD36R,0.0413X0.0551*%
%ADD37R,0.0571X0.0453*%
%ADD38R,0.0551X0.1181*%
%ADD39R,0.0500X0.0250*%
%ADD40R,0.0900X0.0960*%
D10*
X066996Y003351D03*
X070304Y003351D03*
X070304Y005437D03*
X066996Y005437D03*
D11*
X068020Y005536D03*
X068335Y005536D03*
X068650Y005536D03*
X068965Y005536D03*
X069280Y005536D03*
D12*
X078150Y007599D03*
X079650Y007599D03*
X079650Y008701D03*
X078150Y008701D03*
X058150Y008599D03*
X058150Y009701D03*
X045650Y009201D03*
X044150Y009201D03*
X042650Y009201D03*
X042650Y008099D03*
X044150Y008099D03*
X045650Y008099D03*
X064650Y014599D03*
X064650Y015701D03*
X068650Y015701D03*
X068650Y014599D03*
X072650Y014599D03*
X072650Y015701D03*
X076650Y015701D03*
X076650Y014599D03*
X080650Y014599D03*
X080650Y015701D03*
D13*
X078701Y011650D03*
X077599Y011650D03*
X072201Y011150D03*
X071099Y011150D03*
X057201Y011650D03*
X056099Y011650D03*
X051201Y011650D03*
X050099Y011650D03*
X045201Y011650D03*
X044099Y011650D03*
X056599Y005150D03*
X057701Y005150D03*
D14*
X067440Y007900D03*
X067440Y008400D03*
X067440Y008900D03*
X067440Y009400D03*
X067440Y009900D03*
X067440Y010400D03*
X067440Y010900D03*
X067440Y011400D03*
X069860Y011400D03*
X069860Y010900D03*
X069860Y010400D03*
X069860Y009900D03*
X069860Y009400D03*
X069860Y008900D03*
X069860Y008400D03*
X069860Y007900D03*
D15*
X060307Y003319D03*
X065504Y002965D03*
D16*
X063300Y008477D03*
X060937Y008477D03*
D17*
X063260Y004619D03*
X062827Y004461D03*
X062394Y004304D03*
X061961Y004461D03*
X061528Y004304D03*
X061095Y004461D03*
X060662Y004461D03*
X063693Y004461D03*
D18*
X060548Y012059D03*
X058752Y012059D03*
X054548Y012059D03*
X052752Y012059D03*
X048548Y012059D03*
X046752Y012059D03*
D19*
X047650Y014775D03*
X053650Y014775D03*
X059650Y014775D03*
D20*
X063150Y015634D03*
X067150Y015634D03*
X071150Y015634D03*
X075150Y015634D03*
X079150Y015634D03*
X079150Y013666D03*
X075150Y013666D03*
X071150Y013666D03*
X067150Y013666D03*
X063150Y013666D03*
X038650Y013416D03*
X038650Y015384D03*
D21*
X044650Y015075D03*
X050650Y015075D03*
X056650Y015075D03*
X056650Y013225D03*
X050650Y013225D03*
X044650Y013225D03*
D22*
X040900Y015134D03*
D23*
X040002Y012260D03*
X041798Y012260D03*
D24*
X040838Y012567D03*
X040838Y011858D03*
X038275Y011796D03*
X038275Y012504D03*
D25*
X042650Y005400D03*
X044650Y005400D03*
X044650Y003900D03*
X042650Y003900D03*
D26*
X056850Y008559D03*
X056850Y009741D03*
D27*
G36*
X049510Y010155D02*
X049926Y009739D01*
X049788Y009601D01*
X049372Y010017D01*
X049510Y010155D01*
G37*
G36*
X049287Y009932D02*
X049703Y009516D01*
X049565Y009378D01*
X049149Y009794D01*
X049287Y009932D01*
G37*
G36*
X049064Y009710D02*
X049480Y009294D01*
X049342Y009156D01*
X048926Y009572D01*
X049064Y009710D01*
G37*
G36*
X048842Y009487D02*
X049258Y009071D01*
X049120Y008933D01*
X048704Y009349D01*
X048842Y009487D01*
G37*
G36*
X048619Y009264D02*
X049035Y008848D01*
X048897Y008710D01*
X048481Y009126D01*
X048619Y009264D01*
G37*
G36*
X048396Y009042D02*
X048812Y008626D01*
X048674Y008488D01*
X048258Y008904D01*
X048396Y009042D01*
G37*
G36*
X048174Y008819D02*
X048590Y008403D01*
X048452Y008265D01*
X048036Y008681D01*
X048174Y008819D01*
G37*
G36*
X047951Y008596D02*
X048367Y008180D01*
X048229Y008042D01*
X047813Y008458D01*
X047951Y008596D01*
G37*
G36*
X047728Y008374D02*
X048144Y007958D01*
X048006Y007820D01*
X047590Y008236D01*
X047728Y008374D01*
G37*
G36*
X047506Y008151D02*
X047922Y007735D01*
X047784Y007597D01*
X047368Y008013D01*
X047506Y008151D01*
G37*
G36*
X047283Y007928D02*
X047699Y007512D01*
X047561Y007374D01*
X047145Y007790D01*
X047283Y007928D01*
G37*
G36*
X052294Y006480D02*
X052710Y006064D01*
X052572Y005926D01*
X052156Y006342D01*
X052294Y006480D01*
G37*
G36*
X052516Y006703D02*
X052932Y006287D01*
X052794Y006149D01*
X052378Y006565D01*
X052516Y006703D01*
G37*
G36*
X052739Y006926D02*
X053155Y006510D01*
X053017Y006372D01*
X052601Y006788D01*
X052739Y006926D01*
G37*
G36*
X052071Y006258D02*
X052487Y005842D01*
X052349Y005704D01*
X051933Y006120D01*
X052071Y006258D01*
G37*
G36*
X051848Y006035D02*
X052264Y005619D01*
X052126Y005481D01*
X051710Y005897D01*
X051848Y006035D01*
G37*
G36*
X051626Y005812D02*
X052042Y005396D01*
X051904Y005258D01*
X051488Y005674D01*
X051626Y005812D01*
G37*
G36*
X051403Y005590D02*
X051819Y005174D01*
X051681Y005036D01*
X051265Y005452D01*
X051403Y005590D01*
G37*
G36*
X051180Y005367D02*
X051596Y004951D01*
X051458Y004813D01*
X051042Y005229D01*
X051180Y005367D01*
G37*
G36*
X050958Y005144D02*
X051374Y004728D01*
X051236Y004590D01*
X050820Y005006D01*
X050958Y005144D01*
G37*
G36*
X050735Y004922D02*
X051151Y004506D01*
X051013Y004368D01*
X050597Y004784D01*
X050735Y004922D01*
G37*
G36*
X050512Y004699D02*
X050928Y004283D01*
X050790Y004145D01*
X050374Y004561D01*
X050512Y004699D01*
G37*
D28*
G36*
X049788Y004699D02*
X049926Y004561D01*
X049510Y004145D01*
X049372Y004283D01*
X049788Y004699D01*
G37*
G36*
X049565Y004922D02*
X049703Y004784D01*
X049287Y004368D01*
X049149Y004506D01*
X049565Y004922D01*
G37*
G36*
X049342Y005144D02*
X049480Y005006D01*
X049064Y004590D01*
X048926Y004728D01*
X049342Y005144D01*
G37*
G36*
X049120Y005367D02*
X049258Y005229D01*
X048842Y004813D01*
X048704Y004951D01*
X049120Y005367D01*
G37*
G36*
X048897Y005590D02*
X049035Y005452D01*
X048619Y005036D01*
X048481Y005174D01*
X048897Y005590D01*
G37*
G36*
X048674Y005812D02*
X048812Y005674D01*
X048396Y005258D01*
X048258Y005396D01*
X048674Y005812D01*
G37*
G36*
X048452Y006035D02*
X048590Y005897D01*
X048174Y005481D01*
X048036Y005619D01*
X048452Y006035D01*
G37*
G36*
X048229Y006258D02*
X048367Y006120D01*
X047951Y005704D01*
X047813Y005842D01*
X048229Y006258D01*
G37*
G36*
X048006Y006480D02*
X048144Y006342D01*
X047728Y005926D01*
X047590Y006064D01*
X048006Y006480D01*
G37*
G36*
X047784Y006703D02*
X047922Y006565D01*
X047506Y006149D01*
X047368Y006287D01*
X047784Y006703D01*
G37*
G36*
X047561Y006926D02*
X047699Y006788D01*
X047283Y006372D01*
X047145Y006510D01*
X047561Y006926D01*
G37*
G36*
X052349Y008596D02*
X052487Y008458D01*
X052071Y008042D01*
X051933Y008180D01*
X052349Y008596D01*
G37*
G36*
X052126Y008819D02*
X052264Y008681D01*
X051848Y008265D01*
X051710Y008403D01*
X052126Y008819D01*
G37*
G36*
X051904Y009042D02*
X052042Y008904D01*
X051626Y008488D01*
X051488Y008626D01*
X051904Y009042D01*
G37*
G36*
X051681Y009264D02*
X051819Y009126D01*
X051403Y008710D01*
X051265Y008848D01*
X051681Y009264D01*
G37*
G36*
X051458Y009487D02*
X051596Y009349D01*
X051180Y008933D01*
X051042Y009071D01*
X051458Y009487D01*
G37*
G36*
X051236Y009710D02*
X051374Y009572D01*
X050958Y009156D01*
X050820Y009294D01*
X051236Y009710D01*
G37*
G36*
X051013Y009932D02*
X051151Y009794D01*
X050735Y009378D01*
X050597Y009516D01*
X051013Y009932D01*
G37*
G36*
X050790Y010155D02*
X050928Y010017D01*
X050512Y009601D01*
X050374Y009739D01*
X050790Y010155D01*
G37*
G36*
X052572Y008374D02*
X052710Y008236D01*
X052294Y007820D01*
X052156Y007958D01*
X052572Y008374D01*
G37*
G36*
X052794Y008151D02*
X052932Y008013D01*
X052516Y007597D01*
X052378Y007735D01*
X052794Y008151D01*
G37*
G36*
X053017Y007928D02*
X053155Y007790D01*
X052739Y007374D01*
X052601Y007512D01*
X053017Y007928D01*
G37*
D29*
X073711Y007987D03*
X073711Y008243D03*
X073711Y008498D03*
X073711Y008754D03*
X073711Y009010D03*
X073711Y009266D03*
X073711Y009522D03*
X073711Y009778D03*
X073711Y010034D03*
X073711Y010290D03*
X073711Y010546D03*
X073711Y010802D03*
X073711Y011057D03*
X073711Y011313D03*
X076589Y011313D03*
X076589Y011057D03*
X076589Y010802D03*
X076589Y010546D03*
X076589Y010290D03*
X076589Y010034D03*
X076589Y009778D03*
X076589Y009522D03*
X076589Y009266D03*
X076589Y009010D03*
X076589Y008754D03*
X076589Y008498D03*
X076589Y008243D03*
X076589Y007987D03*
D30*
X035238Y010275D03*
X027113Y010275D03*
X018488Y010275D03*
X009863Y010150D03*
D31*
X011437Y009687D03*
X011437Y010613D03*
X020062Y010738D03*
X020062Y009812D03*
X028687Y009812D03*
X028687Y010738D03*
X036812Y010738D03*
X036812Y009812D03*
D32*
X034423Y010930D03*
X034167Y010930D03*
X033911Y010930D03*
X033655Y010930D03*
X033399Y010930D03*
X033143Y010930D03*
X032887Y010930D03*
X032631Y010930D03*
X032375Y010930D03*
X032119Y010930D03*
X031864Y010930D03*
X031608Y010930D03*
X026173Y010930D03*
X025917Y010930D03*
X025661Y010930D03*
X025405Y010930D03*
X025149Y010930D03*
X024893Y010930D03*
X024637Y010930D03*
X024381Y010930D03*
X024125Y010930D03*
X023869Y010930D03*
X023614Y010930D03*
X023358Y010930D03*
X017548Y010930D03*
X017292Y010930D03*
X017036Y010930D03*
X016780Y010930D03*
X016524Y010930D03*
X016268Y010930D03*
X016012Y010930D03*
X015756Y010930D03*
X015500Y010930D03*
X015244Y010930D03*
X014989Y010930D03*
X014733Y010930D03*
X009048Y010930D03*
X008792Y010930D03*
X008536Y010930D03*
X008280Y010930D03*
X008024Y010930D03*
X007768Y010930D03*
X007512Y010930D03*
X007256Y010930D03*
X007000Y010930D03*
X006744Y010930D03*
X006489Y010930D03*
X006233Y010930D03*
X006233Y013331D03*
X006489Y013331D03*
X006744Y013331D03*
X007000Y013331D03*
X007256Y013331D03*
X007512Y013331D03*
X007768Y013331D03*
X008024Y013331D03*
X008280Y013331D03*
X008536Y013331D03*
X008792Y013331D03*
X009048Y013331D03*
X014733Y013331D03*
X014989Y013331D03*
X015244Y013331D03*
X015500Y013331D03*
X015756Y013331D03*
X016012Y013331D03*
X016268Y013331D03*
X016524Y013331D03*
X016780Y013331D03*
X017036Y013331D03*
X017292Y013331D03*
X017548Y013331D03*
X023358Y013331D03*
X023614Y013331D03*
X023869Y013331D03*
X024125Y013331D03*
X024381Y013331D03*
X024637Y013331D03*
X024893Y013331D03*
X025149Y013331D03*
X025405Y013331D03*
X025661Y013331D03*
X025917Y013331D03*
X026173Y013331D03*
X031608Y013331D03*
X031864Y013331D03*
X032119Y013331D03*
X032375Y013331D03*
X032631Y013331D03*
X032887Y013331D03*
X033143Y013331D03*
X033399Y013331D03*
X033655Y013331D03*
X033911Y013331D03*
X034167Y013331D03*
X034423Y013331D03*
D33*
X033015Y012150D03*
X024765Y012150D03*
X016140Y012150D03*
X007640Y012150D03*
D34*
X012671Y014025D03*
X013379Y014025D03*
X021296Y014588D03*
X022004Y014588D03*
X029921Y014275D03*
X030629Y014275D03*
X030921Y009775D03*
X031629Y009775D03*
X023379Y009775D03*
X022671Y009775D03*
X014629Y009775D03*
X013921Y009775D03*
X006129Y009900D03*
X005421Y009900D03*
X005421Y006900D03*
X006129Y006900D03*
X013921Y006900D03*
X014629Y006900D03*
X022671Y007025D03*
X023379Y007025D03*
X030796Y007025D03*
X031504Y007025D03*
X004629Y014525D03*
X003921Y014525D03*
D35*
X006400Y015151D03*
X006400Y015899D03*
X009025Y015899D03*
X009025Y015151D03*
X015150Y015026D03*
X015150Y015774D03*
X017525Y015774D03*
X017525Y015026D03*
X023650Y015276D03*
X025775Y015276D03*
X025775Y016024D03*
X023650Y016024D03*
X032025Y016024D03*
X034275Y016024D03*
X034275Y015276D03*
X032025Y015276D03*
D36*
X009524Y008650D03*
X008776Y008650D03*
X010151Y008025D03*
X010899Y008025D03*
X007774Y006900D03*
X007026Y006900D03*
X010026Y005900D03*
X010774Y005900D03*
X015401Y006400D03*
X016149Y006400D03*
X018401Y006400D03*
X019149Y006400D03*
X019149Y007525D03*
X018401Y007525D03*
X018399Y008400D03*
X017651Y008400D03*
X024026Y006400D03*
X024774Y006400D03*
X027151Y006400D03*
X027899Y006400D03*
X027899Y007400D03*
X027151Y007400D03*
X027149Y008275D03*
X026401Y008275D03*
X032276Y006525D03*
X033024Y006525D03*
X035276Y006400D03*
X036024Y006400D03*
X036024Y007400D03*
X035276Y007400D03*
X035274Y008275D03*
X034526Y008275D03*
D37*
X017275Y005421D03*
X017275Y006129D03*
X008900Y006254D03*
X008900Y005546D03*
X026150Y005421D03*
X026150Y006129D03*
X034400Y006129D03*
X034400Y005421D03*
X022275Y011796D03*
X022275Y012504D03*
X030525Y012629D03*
X030525Y011921D03*
X013400Y011796D03*
X013400Y012504D03*
X004650Y012629D03*
X004650Y011921D03*
D38*
X010900Y013955D03*
X010900Y015845D03*
X019400Y015845D03*
X019400Y013955D03*
X027900Y013955D03*
X027900Y015845D03*
X036400Y015845D03*
X036400Y013955D03*
D39*
X040275Y010562D03*
X040275Y010238D03*
D40*
X040275Y010400D03*
M02*
