%
M48
M72
T01C0.0200
T02C0.0236
T03C0.0320
T04C0.0354
T05C0.0400
T06C0.0472
T07C0.0512
T08C0.1500
%
T01
X3050Y5100
X4750Y5550
X5250Y5550
X5750Y5550
X6250Y5550
X6750Y5550
X10825Y6850
X11325Y6850
X13050Y7150
X13050Y7650
X13050Y8150
X12800Y8650
X12800Y9150
X12750Y9750
X12750Y10250
X9575Y11100
X8500Y11800
X8050Y11750
X7650Y11750
X7250Y11750
X6875Y11800
X7125Y12175
X7250Y12550
X6875Y12550
X7650Y12550
X7625Y12175
X8050Y12150
X8050Y12550
X8500Y12550
X8500Y12550
X8500Y12175
X10700Y12350
X11200Y12350
X11700Y12350
X11700Y11850
X11200Y11850
X10700Y11850
X12450Y11475
X15375Y11750
X15750Y11750
X16150Y11750
X16550Y11750
X16925Y11750
X16925Y12150
X16550Y12150
X16550Y12550
X16925Y12550
X16150Y12550
X15750Y12550
X15375Y12550
X15375Y12150
X15750Y12150
X16150Y12150
X18700Y12350
X19200Y12350
X19700Y12350
X19700Y11850
X19200Y11850
X18700Y11850
X18700Y12850
X19200Y12850
X19700Y12850
X24075Y12475
X24450Y12475
X24825Y12475
X25200Y12475
X25575Y12475
X25575Y12100
X25200Y12100
X25200Y11725
X25575Y11725
X24825Y11725
X24450Y11725
X24450Y12100
X24825Y12100
X24075Y12100
X24075Y11725
X27504Y12501
X28004Y12501
X28504Y12501
X28629Y11501
X32375Y11750
X32750Y11750
X33150Y11750
X33525Y11750
X33550Y12150
X33150Y12175
X33150Y12550
X33525Y12550
X32750Y12550
X32375Y12550
X32375Y12175
X32750Y12175
X35065Y12324
X35065Y12824
X36940Y12699
X37700Y11670
X36440Y11574
X37650Y10560
X39105Y10390
X38775Y9935
X40960Y9170
X41700Y8750
X38888Y8225
X39603Y7688
X41260Y7448
X40123Y6790
X40640Y6523
X39325Y6225
X38788Y6480
X37820Y6680
X34450Y6850
X33950Y6850
X33950Y7350
X34450Y7350
X32325Y7475
X29825Y7850
X26200Y7350
X25700Y7350
X24175Y7400
X25700Y6850
X26200Y6850
X30825Y5475
X28150Y3700
X22750Y5425
X19950Y5038
X15250Y5175
X14750Y5175
X14250Y5175
X13750Y5175
X13250Y5175
X17075Y6850
X17575Y6850
X17575Y7350
X17075Y7350
X15675Y7275
X19763Y7163
X21175Y7400
X20925Y7900
X22425Y8150
X20675Y8400
X21175Y6775
X28575Y8975
X33950Y8413
X36575Y8975
X37150Y8650
X43850Y7000
X45000Y6650
X46308Y6940
X46738Y6563
X48623Y6523
X49368Y6943
X50739Y7065
X51800Y7100
X53245Y7078
X53850Y7013
X55000Y7013
X55723Y6880
X56975Y6585
X57630Y6770
X58998Y7390
X60333Y7303
X59853Y6968
X61350Y7350
X62913Y7413
X62050Y8450
X60018Y8428
X57450Y9163
X59173Y9690
X59350Y10350
X61048Y11145
X62418Y11120
X63150Y10450
X64928Y10685
X66645Y10260
X68127Y10171
X66712Y9099
X65798Y9225
X63288Y9538
X69043Y11555
X68150Y12513
X66088Y12513
X69348Y14020
X69850Y15650
X66150Y15650
X60150Y15150
X59150Y15150
X59650Y14650
X59150Y14150
X60150Y14150
X58150Y13650
X58150Y14650
X56150Y14650
X55650Y14650
X55650Y15150
X56150Y15150
X56150Y15650
X55650Y15650
X54150Y15150
X53150Y15150
X53650Y14650
X53150Y14150
X54150Y14150
X52150Y13650
X52150Y14650
X50150Y14650
X49650Y14650
X49650Y15150
X50150Y15150
X50150Y15650
X49650Y15650
X48150Y15150
X47150Y15150
X47650Y14650
X47150Y14150
X48150Y14150
X46150Y13650
X46150Y14650
X44150Y14650
X43650Y14650
X43650Y15150
X44150Y15150
X44150Y15650
X43650Y15650
X41463Y15650
X40900Y15150
X41463Y14650
X40900Y14150
X40275Y14650
X37700Y15100
X37700Y15600
X37700Y16100
X35650Y16150
X35650Y15650
X35650Y16650
X34550Y16900
X34050Y16900
X32300Y16900
X31800Y16900
X29700Y17650
X29200Y17650
X29200Y17150
X27150Y16650
X27150Y16150
X27150Y15650
X29200Y15600
X30200Y15600
X30200Y15100
X29200Y15100
X29200Y16100
X30200Y16100
X26050Y16900
X25550Y16900
X23800Y16900
X23300Y16900
X21200Y17650
X20700Y17650
X20700Y17150
X18650Y16650
X18650Y16150
X20700Y16100
X20700Y15600
X20700Y15100
X21700Y15600
X21700Y16100
X17550Y16900
X17050Y16900
X15300Y16900
X14800Y16900
X12700Y17650
X12200Y17650
X12200Y17150
X11050Y17150
X10675Y17400
X11050Y17650
X11050Y18150
X10550Y18150
X10550Y18650
X11050Y18650
X12200Y18650
X12700Y18650
X12700Y18150
X12200Y18150
X8950Y17025
X8450Y17025
X8450Y16650
X8950Y16650
X10150Y16650
X10150Y16150
X10150Y15650
X12200Y15600
X12700Y15600
X12700Y15100
X12200Y15100
X12200Y16100
X12700Y16100
X6700Y16650
X6200Y16650
X6200Y17025
X6700Y17025
X4200Y17150
X4200Y17650
X3700Y17650
X3700Y18150
X4200Y18150
X4200Y18650
X4200Y16650
X4200Y16150
X3950Y15400
X3875Y13675
X3875Y12550
X3875Y11925
X10700Y12850
X11200Y12850
X11700Y12850
X20875Y10250
X10825Y8725
X7000Y7675
X8575Y7475
X9075Y7475
X9075Y6975
X8575Y6975
X5750Y8300
X5250Y8300
X4750Y8300
X3750Y8050
X3750Y7425
X3750Y8675
X4750Y8800
X5250Y8800
X5750Y8800
X3750Y9300
X3750Y9925
X19050Y18150
X19550Y18150
X20700Y18150
X21200Y18150
X21200Y18650
X20700Y18650
X19550Y18650
X19050Y18650
X19650Y19650
X20650Y19650
X20650Y20150
X20150Y20150
X19650Y20150
X19650Y20650
X20150Y20650
X20650Y20650
X27550Y18650
X28050Y18650
X29200Y18650
X29700Y18650
X29700Y18150
X29200Y18150
X28050Y18150
X27550Y18150
X28150Y19650
X29150Y19650
X29150Y20150
X28650Y20150
X28150Y20150
X28150Y20650
X28650Y20650
X29150Y20650
X36050Y18650
X36550Y18650
X37700Y18650
X38200Y18650
X38200Y18150
X37700Y18150
X36550Y18150
X36050Y18150
X37700Y17650
X38200Y17650
X37700Y17150
X40900Y16150
X40213Y15650
X46150Y15650
X47650Y15650
X52150Y15650
X53650Y15650
X58150Y15650
X59650Y15650
X56680Y12170
X51095Y10595
X50613Y11030
X49395Y11470
X47455Y11140
X47540Y10115
X46480Y9805
X48228Y9465
X47213Y8953
X46575Y8808
X46425Y8200
X48391Y7700
X49200Y8050
X49988Y7988
X50900Y8600
X50060Y9168
X52510Y9520
X52127Y9867
X51630Y9940
X53070Y9170
X53838Y8788
X53238Y8458
X54210Y8020
X54753Y7966
X55350Y7850
X56418Y7638
X55585Y9520
X65950Y6650
X67720Y6100
X65750Y5260
X64450Y5150
X65950Y4650
X63555Y3653
X62670Y3210
X62124Y3104
X61399Y2696
X59413Y2913
X61362Y3650
X64515Y2673
X64898Y3140
X66160Y3020
X70810Y4160
X71263Y4775
X72960Y5323
X72818Y5890
X73505Y5768
X71888Y6275
X70148Y6750
X68450Y7150
X62825Y5615
X61868Y5678
X61520Y5240
X60978Y5405
X60456Y5280
X58850Y5350
X57149Y5693
X54475Y5425
X54100Y4700
X54890Y4250
X53953Y4003
X54477Y3797
X56100Y4163
X56590Y4530
X56493Y3505
X52188Y2775
X52053Y3563
X51110Y3940
X50313Y3963
X52105Y4085
X49563Y2900
X48110Y2610
X46670Y3595
X45438Y4063
X43688Y3400
X41770Y3045
X39403Y3970
X38728Y3893
X38140Y3708
X37418Y3148
X36750Y3650
X41250Y4525
X38670Y5330
X38173Y5010
X37903Y5543
X43980Y5170
X45260Y5455
X45563Y5025
X46500Y5650
X47808Y5150
X47705Y4503
X50383Y5553
X62143Y5120
X71058Y2673
X71638Y2713
X75650Y6950
X76090Y7760
X75839Y8459
X74525Y8638
X77248Y9700
X75652Y9961
X74325Y10525
X75838Y11013
X74625Y11525
X73680Y11990
X73098Y11610
X75150Y12450
X72200Y10338
X71075Y10338
X73075Y9775
X42378Y12887
X43650Y19650
X44150Y19650
X44650Y19650
X44650Y20150
X44150Y20150
X43650Y20150
X43650Y20650
X44150Y20650
X44650Y20650
X49650Y20650
X50150Y20650
X50650Y20650
X50650Y20150
X50150Y20150
X49650Y20150
X49650Y19650
X50150Y19650
X50650Y19650
X55650Y19650
X56150Y19650
X56650Y19650
X56650Y20150
X56150Y20150
X55650Y20150
X55650Y20650
X56150Y20650
X56650Y20650
X37650Y20650
X37150Y20650
X36650Y20650
X36650Y20150
X37150Y20150
X37650Y20150
X37650Y19650
X36650Y19650
X12150Y19650
X12150Y20150
X11650Y20150
X11650Y20650
X12150Y20650
T02
X8775Y14525
X10275Y14150
X6593Y14525
X5150Y14525
X14025Y14400
X15275Y14400
X17150Y14400
X18775Y13900
X21650Y13275
X22900Y13275
X22650Y14400
X23838Y14400
X25838Y14525
X27275Y14025
X31150Y14275
X32150Y14400
X34111Y14525
X35780Y13952
X31150Y13275
X38963Y11713
X45025Y10650
X49025Y11025
X52588Y8900
X39588Y8338
X33525Y9775
X29275Y8900
X27775Y8150
X24900Y7150
X27149Y5774
X33025Y7275
X36025Y5650
X35275Y5400
X46650Y4150
X25275Y9900
X20025Y8900
X19025Y8150
X16400Y7025
X19775Y6275
X11650Y7400
X7775Y7588
X11400Y5900
X8150Y4900
X11275Y3775
X15400Y3775
X7900Y9525
X9025Y9963
X4150Y10650
X5650Y11650
X14275Y12275
X16650Y9775
X69088Y10463
X71525Y9525
X70838Y9400
X72963Y9025
X74588Y7525
X71650Y6900
X71150Y6338
X70088Y7338
X74150Y5025
X78088Y5088
X77838Y2650
X81400Y7588
X73088Y10525
X71588Y11775
T03
X41900Y11275
X41900Y10275
T04
X67961Y4650
X69339Y4650
T05
X72650Y4150
X73650Y4150
X74650Y4150
X75650Y4150
X76650Y4150
X78650Y4150
X79650Y4150
X80650Y4150
X80650Y3150
X79650Y3150
X78650Y3150
X76650Y3150
X75650Y3150
X74650Y3150
X73650Y3150
X72650Y3150
X80150Y10650
X80150Y11650
X38150Y9650
X38150Y8650
X38150Y7650
T06
X35284Y18150
X33906Y18150
X32528Y18150
X31150Y18150
X26784Y18150
X25406Y18150
X24028Y18150
X22650Y18150
X18284Y18150
X16906Y18150
X15528Y18150
X14150Y18150
X9784Y18150
X8406Y18150
X7028Y18150
X5650Y18150
X63150Y18150
X64528Y18150
X67150Y18150
X68528Y18150
X71150Y18150
X72528Y18150
X75150Y18150
X76528Y18150
X79150Y18150
X80528Y18150
T07
X59619Y18150
X57650Y18150
X53619Y18150
X51650Y18150
X47619Y18150
X45650Y18150
X41619Y18150
X39650Y18150
T08
X3650Y3650
X3650Y20150
X82650Y20150
X82650Y3650
M30
